<?xml version="1.0" encoding="utf-8" ?><svg xmlns="http://www.w3.org/2000/svg" xmlns:xlink="http://www.w3.org/1999/xlink" width="338" height="489" viewBox="0 0 338 489"><path fill="white" d="M0 0L338 0L338 489L0 489L0 0Z"/><path d="M173.159 32.801C177.443 32.43 192.459 38.7167 197.474 40.5399C212.176 45.8393 226.834 51.2568 241.449 56.792L274.147 68.908C279.211 70.821 289.677 74.2281 293.508 77.2062C298.125 80.7875 301.103 86.0788 301.768 91.8837C302.128 95.1203 301.992 99.9422 301.997 103.336L302.008 122.746L301.998 185.762L302.022 245.034L302.029 261.93C302.032 275.819 301.524 285.387 292.385 296.774C284.591 306.483 274.028 311.735 263.632 318.162L231.615 338.009L201.726 356.62C197.46 359.283 193.181 361.922 188.897 364.552C184.182 367.445 180.756 369.519 175.113 370.155C168.292 370.932 158.488 363.922 152.722 360.333L131.971 347.408L91.1216 322.01C81.4024 315.951 70.8763 310.062 61.9364 302.982C54.2638 296.906 49.1151 287.073 47.1656 277.632C46.1098 272.519 46.2489 266.633 46.2475 261.366L46.2535 245.109L46.2567 186.782L46.2594 124.436L46.2485 104.478C46.2448 95.2466 45.1961 86.4302 52.352 79.2437C57.1551 74.4201 64.2899 72.816 70.5116 70.3672C83.9995 65.1738 97.5393 60.1163 111.129 55.1954C124.323 50.2263 137.552 45.3531 150.817 40.5763C157.11 38.2521 167.075 33.997 173.159 32.801Z"/><path fill="white" d="M173.364 50.5157C176.195 50.2508 182.604 53.1429 185.503 54.2328L203.461 60.8213L252.587 78.985C258.468 81.175 264.333 83.4094 270.181 85.688C274.575 87.3813 281.803 89.3423 284.41 93.1879C284.994 96.6841 284.732 109.193 284.731 113.29L284.737 154.084L284.749 231.101L284.758 256.76C284.758 261.392 284.878 266.759 284.677 271.355C284.572 274.119 283.966 276.841 282.888 279.388C277.742 291.74 264.361 297.465 253.574 304.259L203.783 335.066C197.925 338.655 192.139 342.519 186.291 346.127C182.927 348.203 178.989 350.987 175.38 352.469C173.07 352.607 171.904 352.122 169.963 350.894C153.612 340.552 137.166 330.253 120.688 320.124L94.1382 303.803C62.6444 284.721 63.7154 285.54 63.7234 249.361L63.7285 212.314L63.7305 134.693C63.7294 121.827 63.6922 108.93 63.7284 96.0621C63.7331 94.4099 63.8115 93.925 64.566 92.4574C65.2677 91.0925 68.4324 89.5208 69.8837 88.9245C77.6434 85.7358 85.6339 82.8251 93.5001 79.9136L130.609 66.1243L159.156 55.6719C163.109 54.2193 169.564 51.4921 173.364 50.5157Z"/><path d="M104.217 87.4465C104.266 87.4423 104.315 87.431 104.364 87.4339C106.685 87.5695 140.543 126.113 144.255 130.473C150.761 130.665 158.3 130.483 164.899 130.481L203.979 130.505C205.931 127.983 208.376 125.571 210.437 123.102C216.64 115.673 223.156 108.59 229.757 101.518C234.231 96.7253 238.643 91.5583 243.629 87.2939C250.439 91.3173 252.111 97.2835 254.306 104.468C259.493 121.398 258.97 138.858 257.429 156.258C257.132 159.608 254.987 172.235 255.715 174.445C261.21 191.121 269.423 207.312 274.182 224.281C268.668 228.994 259.061 235.632 253.078 240.083L220.411 264.836C220.783 263.92 221.144 262.92 221.451 261.977C224.137 253.721 227.746 245.811 230.679 237.658C227.064 241.776 218.488 255.02 216.965 259.642C213.357 270.589 214.194 281.448 206.216 291.087C204.249 293.463 202.881 295.596 200.17 297.56C193.263 296.26 185.063 293.643 177.712 292.154C177.685 289.751 177.701 287.348 177.762 284.946C178.894 283.662 181.109 282.038 182.534 281.015C186.222 278.352 190.47 274.814 192.785 270.799C196.748 263.926 196.37 253.443 196.576 245.663C196.709 239.777 196.988 233.895 197.412 228.023C197.627 224.935 197.906 220.146 199.492 217.472C200.932 214.855 205.864 214.075 208.312 213.557C215.65 212.002 215.593 210.065 217.86 203.69C218.187 202.769 221.946 199.652 223.033 198.555C225.243 196.326 226.575 194.023 228.26 191.251C225.817 191.995 223.377 192.754 220.942 193.527C215.731 195.09 201.065 200.183 197.549 203.53C195.894 205.106 194.683 207.255 194.139 209.47C192.899 214.525 193.137 220.293 192.943 225.498C192.572 236.562 192.314 247.628 192.171 258.697C180.335 258.934 167.987 258.768 156.13 258.749C155.854 248.742 155.628 238.734 155.452 228.725C155.336 223.19 155.386 217.599 154.706 212.134C153.515 202.554 146.535 200.573 138.823 197.653C132.493 195.256 126.908 192.884 120.269 191.233C123.612 196.646 126.511 198.995 130.73 203.423C132.167 204.93 131.393 209.044 134.243 211.243C138.894 214.832 146 212.788 149.034 218.187C150.656 221.589 150.759 225.547 151.042 229.223C151.74 238.299 151.553 247.393 152.061 256.475C152.195 258.87 152.294 261.295 152.779 263.65C153.325 266.256 154.329 268.744 155.745 271C158.464 275.41 162.811 278.789 167.037 281.663C168.504 282.661 169.638 283.495 170.732 284.908L170.913 285.144C171.068 287.178 170.87 290.108 170.906 292.315C167.237 292.998 163.566 293.899 159.887 294.785C156.537 295.592 152.489 297.15 149.082 297.477C147.672 297.612 145.402 294.698 144.49 293.711C136.593 285.169 135.277 278.789 133.385 267.764C133.025 265.668 131.764 260.621 130.786 258.56C127.594 251.832 122.144 243.364 117.287 237.782C119.856 243.509 122.204 249.512 124.605 255.32C125.936 258.538 126.952 261.833 128.427 265.009C124.477 262.545 120.288 259.004 116.526 256.117L99.1529 242.936C91.4937 237.061 81.267 230.148 74.292 223.864C75.3853 220.983 76.4109 217.534 77.4546 214.55C79.2954 209.422 81.1803 204.31 83.109 199.214C84.3607 195.822 85.6694 192.452 87.0344 189.104C88.6985 185.093 92.02 178.283 92.7086 173.786C92.9217 172.394 92.655 170.045 92.4466 168.623C88.9897 145.044 87.4064 120.259 96.2412 97.5965C97.9904 93.1096 100.042 90.0291 104.217 87.4465Z"/><path fill="white" d="M243.728 104.425L244.085 104.81C247.65 121.091 247.702 150.588 242.644 166.58L231.213 155.179C226.384 150.302 221.422 145.175 217.22 139.746C218.748 136.313 221.968 131.891 224.225 128.734C230.209 120.229 236.723 112.11 243.728 104.425Z"/><path fill="white" d="M104.182 104.848C108.006 106.317 128.587 134.61 130.628 139.639C128.77 143.484 120.282 151.764 117.026 155.092C113.309 158.843 109.458 162.368 105.774 166.188C100.465 150.133 100.644 121.154 104.182 104.848Z"/><path d="M262.503 245.777C262.815 246.298 262.803 248.406 262.77 249.177C262.304 260.014 263.475 271.294 262.159 282.009C261.902 284.109 259.164 288.317 257.53 289.495C243.443 299.648 228.485 310.245 213.655 319.288L213.56 318.645C215.317 315.298 224.905 305.576 228.052 301.959C233.843 295.303 240.71 288.229 246.197 281.378C246.023 275.692 245.726 262.299 246.247 257.046C251.187 253.272 257.276 249.112 262.503 245.777Z"/><path d="M85.7542 245.846C89.0328 247.617 99.0464 254.999 102.226 257.444C102.056 265.229 101.943 273.729 102.089 281.507C106.438 287.514 134.207 316.157 134.9 319.107C131.134 317.83 121.356 310.512 117.476 307.889C108.186 301.61 97.3474 295.329 89.1731 287.686C85.6817 284.421 85.2666 278.588 85.3969 274.049C85.6634 264.761 85.1553 255.139 85.7542 245.846Z"/><path d="M170.577 300.356C179.3 299.586 187.079 301.461 195.272 304.087C191.153 309.602 185.004 312.593 178.372 313.811C168.258 315.362 159.99 311.546 153.252 304.301C158.682 301.958 164.701 300.804 170.577 300.356Z"/><path d="M54.5077 385.997C67.7694 385.694 78.7683 396.194 79.0817 409.456C79.3951 422.717 68.9044 433.725 55.6431 434.049C42.3665 434.373 31.3435 423.868 31.0297 410.591C30.716 397.314 41.2306 386.3 54.5077 385.997Z"/><path fill="white" d="M54.4389 396.13C62.1151 395.774 68.619 401.725 68.9438 409.402C69.2686 417.08 63.2906 423.559 55.6116 423.852C47.9776 424.143 41.5447 418.208 41.2218 410.575C40.8989 402.942 46.8075 396.485 54.4389 396.13Z"/><path d="M177.948 387.45C186.245 387.859 195.102 386.783 203.335 387.887C212.901 389.169 218.88 397.57 216.973 407.026C215.861 412.539 212.964 414.981 208.506 417.929C211.892 422.777 215.241 427.65 218.553 432.549C217.188 432.517 215.69 432.553 214.313 432.558L206.598 432.72C203.959 428.503 200.757 423.927 197.98 419.747L188.78 419.806C188.742 423.697 188.735 428.643 188.956 432.493C185.378 432.569 181.594 432.514 177.998 432.512L177.948 387.45Z"/><path fill="white" d="M189.517 396.385C193.556 396.061 201.545 395.526 204.547 398.57C207.852 401.921 206.683 406.375 203.651 409.427C200.021 411.882 193.245 411.163 188.774 411.051C188.76 409.036 188.544 397.924 188.962 396.544L189.517 396.385Z"/><path d="M275.521 387.484L284.933 387.492C291.409 395.628 300.569 406.199 306.401 414.383C306.48 405.644 306.541 396.204 306.326 387.491L317.166 387.518C316.952 391.274 317.192 397.263 317.172 401.228C317.067 411.623 317.058 422.018 317.147 432.413C315.977 432.791 309.252 432.602 307.576 432.558C305.976 429.939 302.92 426.75 300.96 424.2C296.37 418.231 290.423 411.592 286.247 405.466C286.592 413.761 286.301 424.069 286.294 432.489C282.68 432.509 279.067 432.571 275.455 432.676L275.521 387.484Z"/><path d="M239.741 387.431C243.188 387.577 247.512 387.47 251.025 387.475C252.071 390.689 255.147 396.611 256.623 399.976C261.343 410.95 266.24 421.848 271.313 432.663C268.639 432.446 262.491 432.681 259.407 432.627C258.267 429.544 256.954 426.363 255.742 423.295L252.421 423.265L235.001 423.26C233.873 426.365 232.684 429.447 231.435 432.506L220.223 432.54C226.478 417.47 233.562 402.37 239.741 387.431Z"/><path fill="white" d="M245.229 398.358C245.889 398.831 250.947 412.324 252.254 414.743L246.063 414.754L238.563 414.739C240.852 409.204 243.085 403.967 245.229 398.358Z"/><path d="M86.0492 387.483L97.0268 387.497L96.9916 403.684C96.9829 408.24 96.8518 411.809 97.5268 416.557C98.6534 424.481 107.973 426.572 113.444 421.736C117.113 418.493 116.318 410.053 116.314 405.103L116.306 387.491C119.889 387.478 123.472 387.483 127.055 387.507L127.014 396.875L127.038 407.466C127.044 414.336 127.391 421.313 122.737 427.004C116.223 434.967 100.091 435.314 92.478 428.861C90.1217 426.872 88.3621 424.269 87.3944 421.341C84.7412 413.372 86.835 396.775 86.0759 387.782L86.0492 387.483Z"/><path d="M132.301 387.478C145.54 387.356 159 387.467 172.247 387.511L172.258 396.262C167.625 396.268 162.312 396.165 157.743 396.43L157.736 418.125L157.745 432.491C154.116 432.55 150.398 432.526 146.762 432.538L146.759 396.258L132.291 396.241L132.301 387.478Z"/><path d="M218.513 445.784C223.192 445.773 231.904 444.794 231.169 452.103C230.972 454.057 229.932 455.137 228.47 456.289C229.344 457.881 231.148 459.792 230.948 461.148C230.171 461.713 229.84 461.496 228.688 461.482C227.183 461.599 224.335 454.83 222.464 456.575C222.131 457.5 222.141 460.319 222.105 461.45L218.399 461.46C218.593 456.465 218.493 450.827 218.513 445.784Z"/><path fill="white" d="M222 448.745C225.662 448.646 229.212 448.975 226.941 453.654C225.39 454.41 223.721 454.247 222.016 454.219L222 448.745Z"/><path d="M120.532 445.771C122.416 445.692 123.158 445.703 124.467 447.279C126.592 449.837 128.494 452.635 130.474 455.32C130.41 452.125 130.331 449.013 130.431 445.814L133.654 445.775L133.769 461.464C133.144 461.493 132.451 461.573 131.831 461.512C130.262 461.355 124.983 453.575 123.735 451.885C123.795 455.049 123.874 458.213 123.972 461.376L120.454 461.447C120.558 456.297 120.488 450.953 120.532 445.771Z"/><path d="M286.526 445.751C286.879 445.754 288.01 445.778 288.263 445.864C290.646 446.667 295.083 453.341 296.507 455.412C296.377 452.349 296.281 449.004 296.518 445.959C297.557 445.963 298.654 445.923 299.697 445.902C299.724 448.119 300.111 460.326 299.441 461.386C299.178 461.419 298.089 461.538 297.929 461.486C295.763 460.78 291.129 453.748 289.745 451.949C289.818 455.071 289.774 458.343 289.78 461.477L286.518 461.464L286.526 445.751Z"/><path d="M68.7406 445.853L72.1466 445.813L78.7789 461.499L75.0473 461.465C74.5512 460.276 74.2176 458.304 72.9377 458.118L67.2127 458.226L65.9619 461.499L62.4346 461.46C64.5924 456.378 66.611 451.007 68.7406 445.853Z"/><path fill="white" d="M70.3565 449.929C70.974 450.454 72.2224 454.118 72.5333 455.004C72.0972 455.404 71.7856 455.266 71.0512 455.279C69.974 455.326 69.1469 455.605 68.574 454.62C68.5001 453.575 69.8247 451.124 70.3565 449.929Z"/><path d="M272.488 445.797L275.714 445.774C275.722 448.164 275.911 459.675 275.626 461.223L275.234 461.44C274.326 461.499 273.663 461.638 272.855 461.261C271.833 459.948 272.362 456.953 272.385 454.901L265.841 454.997L265.819 461.436L262.465 461.437C262.554 456.369 262.263 450.857 262.524 445.845C263.502 445.895 264.982 445.826 266 445.808L265.925 452.008L272.316 451.95L272.488 445.797Z"/><path d="M47.5148 445.789L50.6661 445.749L50.7229 451.988L57.2372 451.968L57.282 445.763L60.5322 445.779C60.5311 447.658 60.7882 460.861 60.4324 461.493L57.2235 461.505L57.2644 454.766L50.7756 454.781L50.7462 461.469L47.4651 461.525C47.3591 457.133 47.2339 450.039 47.5148 445.789Z"/><path d="M153.742 445.937C155.792 445.912 163.661 445.522 164.764 446.377C164.798 447.278 164.842 447.468 164.379 448.226C163.055 449.322 159.359 448.778 157.318 448.741L157.299 452.093C158.862 452.099 163.105 451.793 164.036 452.837C164.047 453.845 164.207 453.942 163.739 454.732C162.638 454.966 158.802 454.809 157.295 454.851L157.235 458.481C159.537 458.521 163.74 457.713 165.157 459.468C165.286 460.284 165.32 460.336 165.067 461.096C163.733 461.872 155.739 461.469 153.733 461.437C153.561 456.608 153.728 450.838 153.742 445.937Z"/><path d="M142.308 445.794C142.77 445.754 143.233 445.719 143.695 445.69C146.877 445.498 148.48 446.318 150.806 448.369C150.054 449.114 148.971 449.956 148.132 450.646C147.133 449.588 146.218 448.645 144.636 448.65C138.406 448.669 138.567 459.407 145.275 458.581C146.093 458.48 146.555 458.649 147.214 457.98C147.542 456.692 147.38 454.942 147.326 453.578L150.514 453.435L150.517 459.954C149.963 460.261 149.392 460.537 148.807 460.782C146.385 461.79 143.615 462.126 141.143 461.087C139.25 460.292 137.764 458.759 137.029 456.843C135.127 451.937 137.583 447.624 142.308 445.794Z"/><path d="M106.289 445.799C108.144 445.797 116.428 445.462 117.275 446.498C117.328 447.386 117.401 447.529 116.967 448.25C115.608 449.241 111.695 448.8 109.676 448.802L109.663 452.127C111.244 452.142 115.19 451.78 116.283 452.635C116.334 453.518 116.449 454.001 116.069 454.792C114.576 455.217 111.656 454.735 109.725 455.011L109.671 458.475L117.501 458.538L117.722 461.404C113.822 461.356 110.153 461.476 106.2 461.328C106.313 456.217 106.267 450.925 106.289 445.799Z"/><path d="M204.267 445.755C206.811 445.849 213.044 445.605 215.014 446.074L215.272 446.504C215.268 447.424 215.317 447.527 214.829 448.255C213.456 449.253 209.839 448.793 207.694 448.832C207.633 449.757 207.68 451.099 207.687 452.059C209.161 452.123 213.211 451.974 214.275 452.261C214.58 452.907 214.468 453.542 214.438 454.279C213.523 455.12 209.173 454.796 207.655 454.77L207.57 458.479L215.729 458.491C215.742 459.357 215.858 460.66 215.389 461.313C213.246 461.61 206.759 461.483 204.271 461.483C204.311 456.24 204.31 450.997 204.267 445.755Z"/><path d="M174.555 445.844L185.442 445.84L185.41 448.767C182.879 448.762 180.301 448.816 177.766 448.844L177.766 452.16C180.129 452.196 182.161 452.155 184.523 452.052C184.617 452.922 184.8 453.581 184.429 454.337C183.115 455.355 179.929 454.827 177.758 454.87L177.759 458.448L185.894 458.493L185.909 461.395C182.372 461.537 178.037 461.435 174.44 461.443L174.555 445.844Z"/><path d="M308.961 445.777C311.112 445.615 315.448 445.682 315.874 448.363C315.737 449.414 314.972 449.966 314.185 450.765C308.67 445.303 303.1 452.528 307.216 457.36C308.304 458.697 311.307 459.322 312.626 458.046C313.413 457.284 313.164 454.585 313.145 453.512C314.132 453.492 315.286 453.371 316.283 453.289L316.28 459.999C313.022 461.506 309.453 462.52 306.103 460.607C302.423 458.501 301.346 453.213 303.434 449.638C304.769 447.353 306.51 446.455 308.961 445.777Z"/><path d="M199.242 445.741C200.4 445.808 201.723 445.774 202.897 445.771C202.245 446.939 201.701 448.213 201.151 449.438C199.579 453.505 198.052 457.543 196.297 461.535L193.14 461.58C192.005 459.009 187.348 448.195 186.83 445.84C187.848 445.956 189.411 445.814 190.484 445.752C191.607 449.484 193.342 453.643 194.842 457.268C195.733 453.946 197.9 449.019 199.242 445.741Z"/><path d="M37.4703 445.773C39.5739 445.643 43.262 445.982 44.5122 447.828C44.5923 448.86 43.5708 449.739 42.7953 450.726C38.9374 446.859 34.4148 448.931 34.5338 454.084C34.6366 458.533 39.601 460.081 42.5993 456.928C42.8172 456.828 42.9127 456.862 43.1807 456.851C43.9849 457.591 44.5276 458.287 45.2181 459.128C32.8606 468.486 24.6714 449.294 37.4703 445.773Z"/><path d="M243.448 445.904L246.469 445.724C245.33 448.172 244.409 450.065 243.082 452.408C240.843 456.13 241.171 457.049 241.222 461.486L237.769 461.457C237.795 460.064 237.914 457.568 237.681 456.239C237.313 454.148 232.045 447.719 232.409 445.879L235.773 445.772C236.988 448.214 238.341 450.456 239.512 452.975C240.711 450.649 242.153 448.199 243.448 445.904Z"/><path d="M247.571 445.789C249.169 445.883 259.452 445.535 260.11 446.36C260.168 447.05 260.338 447.94 260.052 448.525C258.893 448.903 256.781 448.797 255.489 448.798L255.511 457.375L255.523 461.469L252.069 461.484C252.083 457.272 252.064 453.06 252.012 448.848C250.333 448.79 248.963 448.901 247.299 449.02L247.571 445.789Z"/><path d="M80.7085 445.76L83.9896 445.761L83.9837 458.446L91.491 458.479C91.5041 459.603 91.5083 460.231 91.3792 461.358L80.6689 461.491C80.6441 456.247 80.6573 451.003 80.7085 445.76Z"/><path d="M93.5119 445.75L96.7772 445.727L96.7692 458.4L104.226 458.49C104.25 459.399 104.44 460.633 103.953 461.286C100.459 461.351 96.9638 461.37 93.469 461.345L93.5119 445.75Z"/><path d="M279.506 445.802C280.488 445.843 281.753 445.79 282.759 445.775C282.761 449.777 282.569 457.811 282.994 461.474L279.435 461.493L279.506 445.802Z"/></svg>